<svg xmlns="http://www.w3.org/2000/svg" width="1920" height="1080" viewBox="0 0 1920 1080" role="img" aria-labelledby="ua-title ua-desc">
  <title id="ua-title">Kaveon unified data intelligence architecture</title>
  <desc id="ua-desc">One front door, two execution paths, one governed lake. Solid components are implemented on dev and verified on AKS; components marked Target name the gate that lands them. Assessed September 12, 2026.</desc>
  <defs>
    <style>
      text { font-family: Inter, -apple-system, "Segoe UI", Roboto, sans-serif; fill: #0f172a; }
      .h0 { font-size: 34px; font-weight: 700; letter-spacing: -0.015em; }
      .h1 { font-size: 20px; font-weight: 700; letter-spacing: -0.01em; }
      .h2 { font-size: 14.5px; font-weight: 650; }
      .b  { font-size: 12px; fill: #475569; }
      .s  { font-size: 11px; fill: #64748b; }
      .k  { font-size: 12px; font-weight: 600; fill: #64748b; }
      .path { font-size: 13px; font-weight: 600; }
      .pathb { font-size: 12px; }
      .pill { font-size: 10px; font-weight: 700; fill: #7c5c00; }
      .card { fill: #ffffff; stroke: #dbe3ee; stroke-width: 1; }
      .tile { fill: #ffffff; stroke: #d6e0ec; stroke-width: 1; }
      .glyph { fill: none; stroke: #2563eb; stroke-width: 1.8; stroke-linecap: round; stroke-linejoin: round; }
      .glyph-o { fill: none; stroke: #c2410c; stroke-width: 1.8; stroke-linecap: round; stroke-linejoin: round; }
      .link { fill: none; stroke: #94a3b8; stroke-width: 1.4; }
      .flow-a { fill: none; stroke: #2563eb; stroke-width: 2.2; }
      .flow-t { fill: none; stroke: #c2410c; stroke-width: 2.2; }
    </style>
    <linearGradient id="ground" x1="0" y1="0" x2="0" y2="1"><stop offset="0" stop-color="#ffffff"/><stop offset="1" stop-color="#f4f7fb"/></linearGradient>
    <linearGradient id="platform" x1="0" y1="0" x2="1" y2="1"><stop offset="0" stop-color="#f7faff"/><stop offset="1" stop-color="#eef4fc"/></linearGradient>
    <linearGradient id="band" x1="0" y1="0" x2="0" y2="1"><stop offset="0" stop-color="#fbfcfe"/><stop offset="1" stop-color="#f3f6fb"/></linearGradient>
    <linearGradient id="pill-a" x1="0" y1="0" x2="1" y2="0"><stop offset="0" stop-color="#eaf2ff"/><stop offset="1" stop-color="#f5f9ff"/></linearGradient>
    <linearGradient id="pill-t" x1="0" y1="0" x2="1" y2="0"><stop offset="0" stop-color="#fff1e8"/><stop offset="1" stop-color="#fff8f3"/></linearGradient>
    <filter id="shadow" x="-5%" y="-5%" width="110%" height="120%"><feDropShadow dx="0" dy="2" stdDeviation="3" flood-color="#0f172a" flood-opacity="0.07"/></filter>
    <filter id="shadow-lg" x="-5%" y="-5%" width="110%" height="120%"><feDropShadow dx="0" dy="6" stdDeviation="10" flood-color="#0f172a" flood-opacity="0.08"/></filter>
    <marker id="ma" markerWidth="10" markerHeight="10" refX="9" refY="5" orient="auto"><path d="M0 0 10 5 0 10Z" fill="#2563eb"/></marker>
    <marker id="mt" markerWidth="10" markerHeight="10" refX="9" refY="5" orient="auto"><path d="M0 0 10 5 0 10Z" fill="#c2410c"/></marker>
    <marker id="mg" markerWidth="9" markerHeight="9" refX="8" refY="4.5" orient="auto"><path d="M0 0 9 4.5 0 9Z" fill="#94a3b8"/></marker>

    <!-- glyphs: 28×28 boxes -->
    <symbol id="g-lake" viewBox="0 0 28 28"><ellipse class="glyph" cx="14" cy="8" rx="9" ry="3.5"/><path class="glyph" d="M5 8v12c0 1.9 4 3.5 9 3.5s9-1.6 9-3.5V8M5 14c0 1.9 4 3.5 9 3.5s9-1.6 9-3.5"/></symbol>
    <symbol id="g-files" viewBox="0 0 28 28"><path class="glyph" d="M8 5h9l5 5v13a1 1 0 0 1-1 1H8a1 1 0 0 1-1-1V6a1 1 0 0 1 1-1z"/><path class="glyph" d="M17 5v5h5M10 14h8M10 18h8"/></symbol>
    <symbol id="g-globe" viewBox="0 0 28 28"><circle class="glyph" cx="14" cy="14" r="9"/><path class="glyph" d="M5 14h18M14 5c3 3 3 15 0 18M14 5c-3 3-3 15 0 18"/></symbol>
    <symbol id="g-people" viewBox="0 0 28 28"><circle class="glyph" cx="11" cy="10" r="3.5"/><circle class="glyph" cx="19" cy="11" r="2.8"/><path class="glyph" d="M4 22c0-4 3-6.5 7-6.5s7 2.5 7 6.5M18 16c3.5 0 6 2 6 5.5"/></symbol>
    <symbol id="g-studio" viewBox="0 0 28 28"><rect class="glyph" x="4" y="6" width="20" height="13" rx="2"/><path class="glyph" d="M10 23h8M14 19v4M8 12l3 3-3 3M13 16h4"/></symbol>
    <symbol id="g-api" viewBox="0 0 28 28"><path class="glyph" d="M14 4l8 4.5v9L14 22l-8-4.5v-9z"/><circle class="glyph" cx="14" cy="13" r="3"/><path class="glyph" d="M14 4v6M6 8.5l5 3M22 8.5l-5 3"/></symbol>
    <symbol id="g-dlm" viewBox="0 0 28 28"><path class="glyph" d="M6 20V9a3 3 0 0 1 3-3h10a3 3 0 0 1 3 3v6a3 3 0 0 1-3 3h-8l-5 4z"/><path class="glyph" d="M10 11h8M10 14h5"/></symbol>
    <symbol id="g-coord" viewBox="0 0 28 28"><rect class="glyph" x="10" y="4" width="8" height="6" rx="1.5"/><rect class="glyph" x="3" y="18" width="8" height="6" rx="1.5"/><rect class="glyph" x="17" y="18" width="8" height="6" rx="1.5"/><path class="glyph" d="M14 10v4M7 18v-2a2 2 0 0 1 2-2h10a2 2 0 0 1 2 2v2"/></symbol>
    <symbol id="g-workers" viewBox="0 0 28 28"><rect class="glyph" x="4" y="5" width="20" height="5" rx="1.5"/><rect class="glyph" x="4" y="12" width="20" height="5" rx="1.5"/><rect class="glyph" x="4" y="19" width="20" height="5" rx="1.5"/><path class="glyph" d="M8 7.5h.01M8 14.5h.01M8 21.5h.01"/></symbol>
    <symbol id="g-records" viewBox="0 0 28 28"><path class="glyph-o" d="M7 4h11l4 4v16H7z"/><path class="glyph-o" d="M18 4v4h4M10 12h8M10 16h8M10 20h5"/></symbol>
    <symbol id="g-chat" viewBox="0 0 28 28"><path class="glyph" d="M5 7a3 3 0 0 1 3-3h12a3 3 0 0 1 3 3v8a3 3 0 0 1-3 3h-7l-5 4v-4H8a3 3 0 0 1-3-3z"/><path class="glyph" d="M9 9h10M9 13h6"/></symbol>
    <symbol id="g-catalog" viewBox="0 0 28 28"><path class="glyph" d="M5 6h8a2 2 0 0 1 2 2v14H7a2 2 0 0 1-2-2z"/><path class="glyph" d="M23 6h-8a2 2 0 0 0-2 2v14h8a2 2 0 0 0 2-2z"/></symbol>
    <symbol id="g-charts" viewBox="0 0 28 28"><path class="glyph" d="M5 22h18M8 19v-6M13 19V9M18 19v-9M23 19V6"/></symbol>
    <symbol id="g-console" viewBox="0 0 28 28"><rect class="glyph" x="4" y="5" width="20" height="16" rx="2"/><path class="glyph" d="M8 10l3 3-3 3M13 16h6"/></symbol>
    <symbol id="g-history" viewBox="0 0 28 28"><circle class="glyph" cx="14" cy="14" r="9"/><path class="glyph" d="M14 8v6l4 2"/></symbol>
    <symbol id="g-exchange" viewBox="0 0 28 28"><path class="glyph" d="M6 10h14l-4-4M22 18H8l4 4"/></symbol>
    <symbol id="g-vector" viewBox="0 0 28 28"><rect class="glyph" x="5" y="5" width="7" height="7" rx="1.2"/><rect class="glyph" x="16" y="5" width="7" height="7" rx="1.2"/><rect class="glyph" x="5" y="16" width="7" height="7" rx="1.2"/><rect class="glyph" x="16" y="16" width="7" height="7" rx="1.2"/></symbol>
    <symbol id="g-retry" viewBox="0 0 28 28"><path class="glyph" d="M21 14a7 7 0 1 1-2-5"/><path class="glyph" d="M21 5v5h-5"/></symbol>
    <symbol id="g-catalogdb" viewBox="0 0 28 28"><ellipse class="glyph-o" cx="14" cy="8" rx="9" ry="3.5"/><path class="glyph-o" d="M5 8v12c0 1.9 4 3.5 9 3.5s9-1.6 9-3.5V8M5 14c0 1.9 4 3.5 9 3.5s9-1.6 9-3.5"/></symbol>
    <symbol id="g-pg" viewBox="0 0 28 28"><ellipse class="glyph" cx="14" cy="8" rx="9" ry="3.5"/><path class="glyph" d="M5 8v12c0 1.9 4 3.5 9 3.5s9-1.6 9-3.5V8"/><path class="glyph" d="M10 15l2.5 2.5L18 12"/></symbol>
    <symbol id="g-shield" viewBox="0 0 28 28"><path class="glyph" d="M14 4l9 3v7c0 5-3.8 8.6-9 10-5.2-1.4-9-5-9-10V7z"/><path class="glyph" d="M10 14l3 3 5-6"/></symbol>
  </defs>

  <rect width="1920" height="1080" fill="url(#ground)"/>

  <!-- Header -->
  <g transform="translate(56 40) scale(0.15)">
    <g fill="#0f172a">
      <rect x="90" y="70" width="20" height="165"/>
      <polygon points="108.73,161.20 215.73,86.39 204.27,70 97.27,144.80"/>
      <polygon points="97.51,161.36 209.51,235 220.49,218.29 108.49,144.64"/>
      <path d="M260 235 L330 70 L350 70 L420 235 L397 235 L340 104 L283 235 Z"/>
      <path d="M465 70 L488 70 L545 201 L602 70 L625 70 L555 235 L535 235 Z"/>
      <rect x="675" y="70" width="20" height="165"/><rect x="675" y="70" width="130" height="20"/>
      <rect x="675" y="142.5" width="108" height="20"/><rect x="675" y="215" width="130" height="20"/>
      <rect x="1060" y="70" width="20" height="165"/><rect x="1195" y="70" width="20" height="165"/>
      <polygon points="1062.53,83.30 1197.53,235 1212.47,221.70 1077.47,70"/>
    </g>
    <path d="M966.25 215.29 A72.5 72.5 0 1 0 893.75 215.29" fill="none" stroke="#4A9EE8" stroke-width="20" stroke-linecap="round"/>
  </g>
  <line x1="262" y1="44" x2="262" y2="76" stroke="#cbd5e1" stroke-width="1.5"/>
  <text class="h0" x="280" y="70">Unified data intelligence architecture</text>
  <text class="s" x="280" y="92">Talk to your data.</text>
  <text class="k" x="1864" y="62" text-anchor="end">One front door  ·  two execution paths  ·  one governed lake</text>
  <text class="s" x="1864" y="84" text-anchor="end">Solid: implemented on dev, verified on AKS.  Marked <tspan class="pill">TARGET</tspan>: not yet — the gate is named.</text>

  <!-- ─── Left: data and identity ─────────────────────────────────────── -->
  <text class="k" x="56" y="140">Data and identity</text>

  <g transform="translate(56 152)" filter="url(#shadow)">
    <rect class="card" width="330" height="96" rx="12"/>
    <use href="#g-lake" x="16" y="18" width="30" height="30"/>
    <text class="h2" x="60" y="34">Lake files on object storage</text>
    <text class="b" x="60" y="54">Parquet · Delta · Iceberg on ADLS Gen2</text>
    <text class="b" x="60" y="72">Read in place; exact statistics</text>
    <rect x="248" y="60" width="66" height="16" rx="8" fill="#fff4d6"/><text class="pill" x="281" y="71.5" text-anchor="middle">S3 · TARGET</text>
  </g>

  <g transform="translate(56 262)" filter="url(#shadow)">
    <rect class="card" width="330" height="96" rx="12"/>
    <use href="#g-files" x="16" y="18" width="30" height="30"/>
    <text class="h2" x="60" y="34">External SQL sources</text>
    <text class="b" x="60" y="54">Fabric SQL · Azure SQL · PostgreSQL · MySQL</text>
    <text class="b" x="60" y="72">Queried by the API; not federated by KaveonDB</text>
  </g>

  <g transform="translate(56 372)" filter="url(#shadow)">
    <rect class="card" width="330" height="96" rx="12"/>
    <use href="#g-globe" x="16" y="18" width="30" height="30"/>
    <text class="h2" x="60" y="34">Public datasets, curated</text>
    <text class="b" x="60" y="54">NYC TLC taxi · OWID energy · WHO COVID</text>
    <text class="b" x="60" y="72">plus a 504M-row synthetic telemetry table</text>
  </g>

  <g transform="translate(56 482)" filter="url(#shadow)">
    <rect class="card" width="330" height="96" rx="12"/>
    <use href="#g-people" x="16" y="18" width="30" height="30"/>
    <text class="h2" x="60" y="34">People and identity</text>
    <text class="b" x="60" y="54">Microsoft Entra ID · GitHub · Google</text>
    <text class="b" x="60" y="72">Viewer &lt; Analyst &lt; Editor &lt; Admin</text>
  </g>

  <!-- connectors from sources into the platform -->
  <path class="link" d="M386 200 C 420 200, 420 200, 452 200" marker-end="url(#mg)"/><text class="s" x="419" y="192" text-anchor="middle">files</text>
  <path class="link" d="M386 310 C 420 310, 420 310, 452 310" marker-end="url(#mg)"/><text class="s" x="419" y="302" text-anchor="middle">SQL</text>
  <path class="link" d="M386 420 C 420 420, 420 420, 452 420" marker-end="url(#mg)"/><text class="s" x="419" y="412" text-anchor="middle">curated</text>
  <path class="link" d="M386 530 C 420 530, 420 530, 452 530" marker-end="url(#mg)"/><text class="s" x="419" y="522" text-anchor="middle">sign-in</text>

  <!-- ─── Centre: platform ────────────────────────────────────────────── -->
  <g filter="url(#shadow-lg)">
    <rect x="452" y="130" width="1016" height="470" rx="16" fill="url(#platform)" stroke="#cfdcee" stroke-width="1.2"/>
  </g>
  <text class="h1" x="960" y="166" text-anchor="middle">Kaveon platform</text>
  <text class="s" x="960" y="186" text-anchor="middle">Studio is the only front door · the API is the trusted control plane · the DLM is deterministic · KaveonDB executes over the lake</text>

  <!-- row 1 -->
  <g transform="translate(476 206)" filter="url(#shadow)">
    <rect class="tile" width="316" height="118" rx="12"/>
    <use href="#g-studio" x="16" y="16" width="30" height="30"/>
    <text class="h2" x="60" y="32">Kaveon Studio</text>
    <text class="b" x="60" y="52">Chat · Catalog with SQL Lab as its query mode</text>
    <text class="b" x="60" y="70">Charts, dashboards, Library · KaveonDB console</text>
    <text class="s" x="60" y="94">Trusted proxy signs identity; the browser never</text>
    <text class="s" x="60" y="108">holds an API or Engine credential</text>
  </g>

  <g transform="translate(802 206)" filter="url(#shadow)">
    <rect class="tile" width="316" height="118" rx="12"/>
    <use href="#g-api" x="16" y="16" width="30" height="30"/>
    <text class="h2" x="60" y="32">API control plane</text>
    <text class="b" x="60" y="52">Verifies the proxy, resolves identity and role</text>
    <text class="b" x="60" y="70">Two query planes: Engine bridge · external pool</text>
    <text class="s" x="60" y="94">Read-only SQL, result and statement bounds,</text>
    <text class="s" x="60" y="108">rate limits, encrypted secrets</text>
  </g>

  <g transform="translate(1128 206)" filter="url(#shadow)">
    <rect class="tile" width="316" height="118" rx="12"/>
    <use href="#g-dlm" x="16" y="16" width="30" height="30"/>
    <text class="h2" x="60" y="32">Deterministic DLM</text>
    <text class="b" x="60" y="52">Route → resolve → clarify on a tie → answer</text>
    <text class="b" x="60" y="70">from precomputed context → else compile SQL</text>
    <text class="s" x="60" y="94">No hosted model. Same question, same answer.</text>
    <text class="s" x="60" y="108">80-question corpus on AKS: 80/80</text>
  </g>

  <!-- row 2 -->
  <g transform="translate(476 338)" filter="url(#shadow)">
    <rect class="tile" width="316" height="118" rx="12"/>
    <use href="#g-coord" x="16" y="16" width="30" height="30"/>
    <text class="h2" x="60" y="32">KaveonDB coordinator</text>
    <text class="b" x="60" y="52">Own parser → plan → stage DAG → schedule</text>
    <text class="b" x="60" y="70">Exact statistics; admission; retry; cancellation</text>
    <text class="s" x="60" y="94">COUNT(*) over 504M rows in 0.3 s from footers</text>
  </g>

  <g transform="translate(802 338)" filter="url(#shadow)">
    <rect class="tile" width="316" height="118" rx="12"/>
    <use href="#g-workers" x="16" y="16" width="30" height="30"/>
    <text class="h2" x="60" y="32">KaveonDB workers</text>
    <text class="b" x="60" y="52">Row-group splits · aggregates · exact DISTINCT</text>
    <text class="b" x="60" y="70">Hash joins · TopN · windows · Arrow exchange</text>
    <text class="s" x="60" y="94">GROUP BY over 504M rows in ~20 s on 3 workers</text>
  </g>

  <g transform="translate(1128 338)" filter="url(#shadow)">
    <rect class="tile" width="316" height="118" rx="12"/>
    <use href="#g-records" x="16" y="16" width="30" height="30"/>
    <text class="h2" x="60" y="32">Product record store</text>
    <text class="b" x="60" y="52">Typed records: datasets, charts, dashboards</text>
    <text class="b" x="60" y="70">Immutable, revision-checked, CAS-published</text>
    <text class="s" x="60" y="94">Snapshot reads; conflicts surface as proofs</text>
    <rect x="60" y="100" width="100" height="14" rx="7" fill="#fff4d6"/><text class="pill" x="110" y="110.5" text-anchor="middle">DML · MVCC · TARGET</text>
  </g>

  <!-- the two paths -->
  <g transform="translate(476 470)" filter="url(#shadow)">
    <rect width="480" height="108" rx="12" fill="url(#pill-a)" stroke="#bfd4f5"/>
    <text class="path" x="18" y="26" fill="#1d4ed8">Analytical path</text>
    <text class="pathb" x="18" y="48">question → identity → DLM resolves metric, dimension, values</text>
    <text class="pathb" x="18" y="66">→ tie? ask · context? answer in ~0.1 s · else SQL</text>
    <text class="pathb" x="18" y="84">→ coordinator → workers → exact result, SQL shown</text>
    <text class="s" x="18" y="100">No model in the loop; 20–35 s live over 504M rows, instant after the DLM builds context</text>
  </g>
  <g transform="translate(964 470)" filter="url(#shadow)">
    <rect width="480" height="108" rx="12" fill="url(#pill-t)" stroke="#f3cdb8"/>
    <text class="path" x="18" y="26" fill="#c2410c">Transactional path</text>
    <text class="pathb" x="18" y="48">save a chart or dataset → validate → PostgreSQL + outbox</text>
    <text class="pathb" x="18" y="66">→ typed record → revision check → digest</text>
    <text class="pathb" x="18" y="84">→ conditional head publication on ADLS → audit</text>
    <text class="s" x="18" y="100">Product records only. PostgreSQL stays authoritative until reconciliation and fencing evidence exist</text>
  </g>

  <!-- ─── Right: experiences ─────────────────────────────────────────── -->
  <text class="k" x="1534" y="140">What people get</text>

  <g transform="translate(1534 152)" filter="url(#shadow)">
    <rect class="card" width="330" height="76" rx="12"/>
    <use href="#g-chat" x="16" y="18" width="30" height="30"/>
    <text class="h2" x="60" y="32">Answers in Chat</text>
    <text class="b" x="60" y="52">Context in ~0.1 s, or live with the SQL shown</text>
  </g>
  <g transform="translate(1534 240)" filter="url(#shadow)">
    <rect class="card" width="330" height="76" rx="12"/>
    <use href="#g-catalog" x="16" y="18" width="30" height="30"/>
    <text class="h2" x="60" y="32">Catalog and SQL Lab</text>
    <text class="b" x="60" y="52">Browse, inspect, query in place</text>
  </g>
  <g transform="translate(1534 328)" filter="url(#shadow)">
    <rect class="card" width="330" height="76" rx="12"/>
    <use href="#g-charts" x="16" y="18" width="30" height="30"/>
    <text class="h2" x="60" y="32">Charts and dashboards</text>
    <text class="b" x="60" y="52">Built on datasets; published to the team</text>
  </g>
  <g transform="translate(1534 416)" filter="url(#shadow)">
    <rect class="card" width="330" height="76" rx="12"/>
    <use href="#g-console" x="16" y="18" width="30" height="30"/>
    <text class="h2" x="60" y="32">KaveonDB console</text>
    <text class="b" x="60" y="52">Cluster, queries, stages, memory</text>
  </g>
  <g transform="translate(1534 504)" filter="url(#shadow)">
    <rect class="card" width="330" height="76" rx="12"/>
    <use href="#g-history" x="16" y="18" width="30" height="30"/>
    <text class="h2" x="60" y="32">Query history and telemetry</text>
    <text class="b" x="60" y="52">Every statement, its stages and its owner</text>
  </g>

  <!-- connectors platform -> experiences -->
  <path class="flow-a" d="M1468 190 C 1500 190, 1500 190, 1534 190" marker-end="url(#ma)"/>
  <path class="flow-a" d="M1468 278 C 1500 278, 1500 278, 1534 278" marker-end="url(#ma)"/>
  <path class="flow-a" d="M1468 366 C 1500 366, 1500 366, 1534 366" marker-end="url(#ma)"/>
  <path class="link" d="M1468 454 C 1500 454, 1500 454, 1534 454" marker-end="url(#mg)"/>
  <path class="link" d="M1468 542 C 1500 542, 1500 542, 1534 542" marker-end="url(#mg)"/>

  <!-- platform -> layers -->
  <path class="flow-a" d="M716 600 L716 632" marker-end="url(#ma)"/>
  <path class="flow-t" d="M1204 600 L1204 632" marker-end="url(#mt)"/>

  <!-- ─── Distributed compute layer ───────────────────────────────────── -->
  <g filter="url(#shadow)"><rect x="56" y="640" width="1808" height="150" rx="14" fill="url(#band)" stroke="#d6e0ec"/></g>
  <text class="h2" x="80" y="668">Distributed compute</text>
  <text class="s" x="248" y="668">coordinator plus workers, elastic in Helm; verified on AKS with forced worker loss and concurrent load</text>

  <g transform="translate(80 686)"><rect class="tile" width="430" height="86" rx="10"/><use href="#g-workers" x="14" y="16" width="28" height="28"/><text class="h2" x="54" y="30">Distributed workers</text><text class="b" x="54" y="50">Scale out for SQL; deterministic row-group and</text><text class="b" x="54" y="68">Delta-file splits; retry to another worker</text></g>
  <g transform="translate(524 686)"><rect class="tile" width="430" height="86" rx="10"/><use href="#g-exchange" x="14" y="16" width="28" height="28"/><text class="h2" x="54" y="30">Arrow exchange</text><text class="b" x="54" y="50">Authenticated, byte-bounded Arrow IPC between</text><text class="b" x="54" y="68">stages; hash, broadcast and round-robin partitioning</text></g>
  <g transform="translate(968 686)"><rect class="tile" width="430" height="86" rx="10"/><use href="#g-vector" x="14" y="16" width="28" height="28"/><text class="h2" x="54" y="30">Vectorized operators</text><text class="b" x="54" y="50">Columnar aggregates, joins, TopN, windows and</text><text class="b" x="54" y="68">set operations over Arrow record batches</text></g>
  <g transform="translate(1412 686)"><rect class="tile" width="430" height="86" rx="10"/><use href="#g-retry" x="14" y="16" width="28" height="28"/><text class="h2" x="54" y="30">Admission, spill, recovery</text><text class="b" x="54" y="50">Memory limits and resource groups; spill for Sort,</text><text class="b" x="54" y="68">TopN and hash aggregates; cancellation cleanup</text><rect x="286" y="8" width="130" height="16" rx="8" fill="#fff4d6"/><text class="pill" x="351" y="19.5" text-anchor="middle">JOIN SPILL · TARGET</text></g>

  <!-- ─── Governed storage layer ──────────────────────────────────────── -->
  <g filter="url(#shadow)"><rect x="56" y="806" width="1808" height="150" rx="14" fill="url(#band)" stroke="#d6e0ec"/></g>
  <text class="h2" x="80" y="834">Governed storage</text>
  <text class="s" x="230" y="834">one lake for analytics and the product's records; PostgreSQL remains the record authority until the migration's evidence is complete</text>

  <g transform="translate(80 852)"><rect class="tile" width="430" height="86" rx="10"/><use href="#g-catalogdb" x="14" y="16" width="28" height="28"/><text class="h2" x="54" y="30">KaveonDB catalog and records</text><text class="b" x="54" y="50">Catalog definitions with revisions; immutable,</text><text class="b" x="54" y="68">digest-verified product documents on ADLS</text></g>
  <g transform="translate(524 852)"><rect class="tile" width="430" height="86" rx="10"/><use href="#g-lake" x="14" y="16" width="28" height="28"/><text class="h2" x="54" y="30">Lake files with exact statistics</text><text class="b" x="54" y="50">Parquet footers and pinned Delta snapshots drive</text><text class="b" x="54" y="68">planning; identities are immutable per query</text></g>
  <g transform="translate(968 852)"><rect class="tile" width="430" height="86" rx="10"/><use href="#g-pg" x="14" y="16" width="28" height="28"/><text class="h2" x="54" y="30">PostgreSQL — authority today</text><text class="b" x="54" y="50">Outbox → checkpointed backfill → exact reconciliation</text><text class="b" x="54" y="68">→ fencing → cutover. 9/9, 70/70, 8/8 reconciled so far</text></g>
  <g transform="translate(1412 852)"><rect class="tile" width="430" height="86" rx="10"/><use href="#g-shield" x="14" y="16" width="28" height="28"/><text class="h2" x="54" y="30">Backup, restore, rollback</text><text class="b" x="54" y="50">Retained snapshots and versioned ADLS objects today;</text><text class="b" x="54" y="68">restore and rollback qualification are the gate</text><rect x="316" y="8" width="100" height="16" rx="8" fill="#fff4d6"/><text class="pill" x="366" y="19.5" text-anchor="middle">PITR · TARGET</text></g>

  <!-- footer -->
  <g transform="translate(56 1030) scale(0.075)">
    <g fill="#0f172a">
      <rect x="90" y="70" width="20" height="165"/>
      <polygon points="108.73,161.20 215.73,86.39 204.27,70 97.27,144.80"/>
      <polygon points="97.51,161.36 209.51,235 220.49,218.29 108.49,144.64"/>
      <path d="M260 235 L330 70 L350 70 L420 235 L397 235 L340 104 L283 235 Z"/>
      <path d="M465 70 L488 70 L545 201 L602 70 L625 70 L555 235 L535 235 Z"/>
      <rect x="675" y="70" width="20" height="165"/><rect x="675" y="70" width="130" height="20"/>
      <rect x="675" y="142.5" width="108" height="20"/><rect x="675" y="215" width="130" height="20"/>
      <rect x="1060" y="70" width="20" height="165"/><rect x="1195" y="70" width="20" height="165"/>
      <polygon points="1062.53,83.30 1197.53,235 1212.47,221.70 1077.47,70"/>
    </g>
    <path d="M966.25 215.29 A72.5 72.5 0 1 0 893.75 215.29" fill="none" stroke="#4A9EE8" stroke-width="20" stroke-linecap="round"/>
  </g>
  <text class="s" x="170" y="1050">Talk to your data.</text>
  <text class="s" x="1864" y="1050" text-anchor="end">Assessed against dev and Engine digest 4a165e94… on kaveon-test-aks, September 12, 2026. Measurements are recorded in HANDSHAKE.md with query IDs.</text>
</svg>
