<svg xmlns="http://www.w3.org/2000/svg" width="1920" height="1140" viewBox="0 0 1920 1140" role="img" aria-labelledby="ua-title ua-desc">
  <title id="ua-title">Kaveon unified data intelligence architecture</title>
  <desc id="ua-desc">Kaveon as it is on dev on September 12, 2026: Studio as the only front door, the API as the trusted control plane, the deterministic DLM answering from precomputed context or live SQL, and KaveonDB executing analytics over lake files while a typed record store migrates the product's own records off PostgreSQL. Solid components are implemented; dashed components are targets with their gate named.</desc>
  <defs>
    <style>
      .t { font-family: Inter, -apple-system, "Segoe UI", Roboto, sans-serif; fill: #111318; }
      .h0 { font-size: 30px; font-weight: 700; letter-spacing: -0.01em; }
      .h1 { font-size: 15px; font-weight: 700; }
      .h2 { font-size: 13.5px; font-weight: 600; }
      .b  { font-size: 11.5px; fill: #3b4350; }
      .s  { font-size: 10.5px; fill: #656B74; }
      .lbl { font-size: 11.5px; font-weight: 600; }
      .box { fill: #ffffff; stroke: #c9d2de; stroke-width: 1.2; }
      .region { fill: #f6f8fb; stroke: #dfe5ee; stroke-width: 1.2; }
      .target { fill: #ffffff; stroke: #9aa5b5; stroke-width: 1.2; stroke-dasharray: 5 4; }
      .a { stroke: #4A9EE8; }  .tx { stroke: #C2410C; }
      .flow { fill: none; stroke-width: 2; }
      .thin { fill: none; stroke: #9aa5b5; stroke-width: 1.2; }
      .ink { fill: #111318; } .blue { fill: #4A9EE8; } .orange { fill: #C2410C; } .grey { fill: #656B74; }
    </style>
    <marker id="ar-a" markerWidth="9" markerHeight="9" refX="8" refY="4.5" orient="auto"><path d="M0 0 9 4.5 0 9Z" fill="#4A9EE8"/></marker>
    <marker id="ar-t" markerWidth="9" markerHeight="9" refX="8" refY="4.5" orient="auto"><path d="M0 0 9 4.5 0 9Z" fill="#C2410C"/></marker>
    <marker id="ar-g" markerWidth="8" markerHeight="8" refX="7" refY="4" orient="auto"><path d="M0 0 8 4 0 8Z" fill="#9aa5b5"/></marker>
  </defs>

  <rect width="1920" height="1140" fill="#ffffff"/>

  <!-- Wordmark (canonical geometry, scaled) -->
  <g transform="translate(48 34) scale(0.16)">
    <g fill="#111318">
      <rect x="90" y="70" width="20" height="165"/>
      <polygon points="108.73,161.20 215.73,86.39 204.27,70 97.27,144.80"/>
      <polygon points="97.51,161.36 209.51,235 220.49,218.29 108.49,144.64"/>
      <path d="M260 235 L330 70 L350 70 L420 235 L397 235 L340 104 L283 235 Z"/>
      <path d="M465 70 L488 70 L545 201 L602 70 L625 70 L555 235 L535 235 Z"/>
      <rect x="675" y="70" width="20" height="165"/><rect x="675" y="70" width="130" height="20"/>
      <rect x="675" y="142.5" width="108" height="20"/><rect x="675" y="215" width="130" height="20"/>
      <rect x="1060" y="70" width="20" height="165"/><rect x="1195" y="70" width="20" height="165"/>
      <polygon points="1062.53,83.30 1197.53,235 1212.47,221.70 1077.47,70"/>
    </g>
    <path d="M966.25 215.29 A72.5 72.5 0 1 0 893.75 215.29" fill="none" stroke="#4A9EE8" stroke-width="20" stroke-linecap="round"/>
  </g>
  <text class="t h0" x="268" y="66">Unified data intelligence architecture</text>
  <text class="t s" x="268" y="88">Talk to your data. Studio is the front door, the API is the trusted control plane, the DLM answers deterministically, KaveonDB executes over the lake.</text>

  <!-- Legend -->
  <g transform="translate(1330 36)">
    <rect x="0" y="0" width="540" height="58" rx="6" class="region"/>
    <rect x="14" y="12" width="26" height="14" rx="3" class="box"/><text class="t s" x="48" y="23">Implemented on <tspan class="ink" font-weight="600">dev</tspan>, verified on AKS</text>
    <rect x="14" y="34" width="26" height="14" rx="3" class="target"/><text class="t s" x="48" y="45">Target, with its gate named. Nothing dashed is claimed.</text>
    <line x1="360" y1="19" x2="396" y2="19" class="flow a"/><text class="t s" x="404" y="23">Analytical path</text>
    <line x1="360" y1="41" x2="396" y2="41" class="flow tx"/><text class="t s" x="404" y="45">Transactional path</text>
  </g>

  <!-- ─── Column 1: sources and identity ─────────────────────────────────── -->
  <text class="t lbl grey" x="48" y="132">Data and identity</text>

  <rect x="48" y="146" width="300" height="118" rx="8" class="box"/>
  <text class="t h2" x="64" y="170">Lake files on object storage</text>
  <text class="t s" x="332" y="170" text-anchor="end">read by KaveonDB</text>
  <text class="t b" x="64" y="190">Parquet · Delta (log replay, pinned version) · Iceberg</text>
  <text class="t b" x="64" y="207">ADLS Gen2 via workload identity, or local disk</text>
  <rect x="64" y="221" width="268" height="30" rx="5" class="target"/>
  <text class="t s" x="74" y="240">S3-compatible storage · gate: object_store reads</text>

  <rect x="48" y="278" width="300" height="104" rx="8" class="box"/>
  <text class="t h2" x="64" y="302">External SQL sources</text>
  <text class="t s" x="332" y="302" text-anchor="end">queried by the API</text>
  <text class="t b" x="64" y="322">Fabric SQL · Azure SQL · PostgreSQL · MySQL · StarRocks</text>
  <text class="t b" x="64" y="339">Registered in Settings; the API runs SQL on them</text>
  <text class="t s" x="64" y="366">KaveonDB does not federate across them.</text>

  <rect x="48" y="396" width="300" height="86" rx="8" class="box"/>
  <text class="t h2" x="64" y="420">Public datasets, curated</text>
  <text class="t b" x="64" y="440">NYC TLC taxi · OWID energy and CO₂ · WHO COVID ·</text>
  <text class="t b" x="64" y="457">AI benchmark tables · 504M-row synthetic telemetry</text>

  <rect x="48" y="496" width="300" height="104" rx="8" class="box"/>
  <text class="t h2" x="64" y="520">People and identity</text>
  <text class="t b" x="64" y="540">Sign-in with Microsoft Entra ID, GitHub or Google</text>
  <text class="t b" x="64" y="557">Roles: Viewer &lt; Analyst &lt; Editor &lt; Admin</text>
  <text class="t s" x="64" y="584">Admin by listed e-mail · visibility private, internal, published</text>

  <!-- ─── Column 2: Studio ───────────────────────────────────────────────── -->
  <rect x="392" y="132" width="330" height="468" rx="10" class="region"/>
  <text class="t h1" x="410" y="158">Kaveon Studio</text>
  <text class="t s" x="410" y="176">Next.js · the only surface a person or a browser touches</text>

  <rect x="410" y="192" width="294" height="60" rx="7" class="box"/>
  <text class="t h2" x="424" y="214">Chat</text>
  <text class="t b" x="424" y="232">Asks the DLM; shows a clarification, an answer</text>
  <text class="t b" x="424" y="246">from context, or a live query with its SQL</text>

  <rect x="410" y="262" width="294" height="60" rx="7" class="box"/>
  <text class="t h2" x="424" y="284">Catalog, with SQL Lab as query mode</text>
  <text class="t b" x="424" y="302">Catalog → schema → table hub (rows, columns,</text>
  <text class="t b" x="424" y="316">used by, DLM readiness) → query in place</text>

  <rect x="410" y="332" width="294" height="46" rx="7" class="box"/>
  <text class="t h2" x="424" y="354">Charts, dashboards, Library</text>
  <text class="t b" x="424" y="371">ECharts · per-user pins · published dashboards</text>

  <rect x="410" y="388" width="294" height="46" rx="7" class="box"/>
  <text class="t h2" x="424" y="410">KaveonDB console</text>
  <text class="t b" x="424" y="427">Cluster, queries, stages, memory — same roles</text>

  <rect x="410" y="444" width="294" height="46" rx="7" class="box"/>
  <text class="t h2" x="424" y="466">Settings</text>
  <text class="t b" x="424" y="483">Connections · storage catalogs · maintenance</text>

  <rect x="410" y="502" width="294" height="84" rx="7" class="box"/>
  <text class="t h2" x="424" y="524">Trusted proxy  /api/kaveon</text>
  <text class="t b" x="424" y="542">Auth.js session → X-User-* headers signed</text>
  <text class="t b" x="424" y="556">with KAVEON_PROXY_SECRET. The browser never</text>
  <text class="t b" x="424" y="570">holds an API or Engine credential.</text>

  <!-- ─── Column 3: API control plane ───────────────────────────────────── -->
  <rect x="766" y="132" width="360" height="468" rx="10" class="region"/>
  <text class="t h1" x="784" y="158">API control plane</text>
  <text class="t s" x="784" y="176">FastAPI · verifies the proxy, resolves identity and role, routes</text>

  <rect x="784" y="192" width="324" height="92" rx="7" class="box"/>
  <text class="t h2" x="798" y="214">Deterministic DLM — no hosted model</text>
  <text class="t b" x="798" y="232">route → resolve metric, dimension, values →</text>
  <text class="t b" x="798" y="246">clarify on a tie → answer from context → else SQL</text>
  <text class="t b" x="798" y="260">Client carries the frame for follow-ups; typo tolerant</text>
  <text class="t s" x="798" y="276">80-question corpus on AKS: 80/80</text>

  <rect x="784" y="294" width="324" height="78" rx="7" class="box"/>
  <text class="t h2" x="798" y="316">Precomputed context</text>
  <text class="t b" x="798" y="334">Per dataset: totals, every breakdown, low-cardinality</text>
  <text class="t b" x="798" y="348">pairs, value index; HLL sketches on PostgreSQL</text>
  <text class="t s" x="798" y="364">Rebuilt on measured data change, never on a timer</text>

  <rect x="784" y="382" width="324" height="62" rx="7" class="box"/>
  <text class="t h2" x="798" y="404">Query planes</text>
  <text class="t b" x="798" y="422">Native catalog → Engine bridge (token, principal, role)</text>
  <text class="t b" x="798" y="436">External source → bounded connection pool</text>

  <rect x="784" y="454" width="324" height="62" rx="7" class="box"/>
  <text class="t h2" x="798" y="476">Records and history</text>
  <text class="t b" x="798" y="494">Datasets, charts, dashboards, saved queries,</text>
  <text class="t b" x="798" y="508">favourites, history — outbox to KaveonDB records</text>

  <rect x="784" y="526" width="324" height="60" rx="7" class="box"/>
  <text class="t h2" x="798" y="548">Guards</text>
  <text class="t b" x="798" y="566">Read-only SQL · platform-table denial · rate limits ·</text>
  <text class="t b" x="798" y="580">5,000-row and statement bounds · encrypted secrets</text>

  <!-- ─── Column 4: KaveonDB ────────────────────────────────────────────── -->
  <rect x="1170" y="132" width="700" height="468" rx="10" class="region"/>
  <text class="t h1" x="1188" y="158">KaveonDB</text>
  <text class="t s" x="1188" y="176">Rust · Arrow · one coordinator, N workers · TLS · Entra-validated identity · resource groups</text>

  <rect x="1188" y="192" width="326" height="132" rx="7" class="box"/>
  <text class="t h2" x="1202" y="214">Coordinator</text>
  <text class="t b" x="1202" y="232">Own SQL parser → plan → stage DAG → schedule</text>
  <text class="t b" x="1202" y="246">Filter and projection pushdown; join pruning</text>
  <text class="t b" x="1202" y="260">Exact statistics from Parquet footers and pinned</text>
  <text class="t b" x="1202" y="274">Delta snapshots; fail-closed broadcast decisions</text>
  <text class="t b" x="1202" y="288">Admission, memory limits, retry to another worker,</text>
  <text class="t b" x="1202" y="302">cancellation, exchange reconciliation on restart</text>
  <text class="t s" x="1202" y="318">COUNT(*) over 504M rows: 0.3 s from footers</text>

  <rect x="1526" y="192" width="326" height="132" rx="7" class="box"/>
  <text class="t h2" x="1540" y="214">Workers</text>
  <text class="t b" x="1540" y="232">Row-group and Delta-file splits; vectorized operators</text>
  <text class="t b" x="1540" y="246">Partial/final aggregates, exact DISTINCT, Sort/TopN,</text>
  <text class="t b" x="1540" y="260">repartitioned and broadcast hash joins, windows</text>
  <text class="t b" x="1540" y="274">Arrow IPC exchange, authenticated, byte-bounded</text>
  <text class="t b" x="1540" y="288">Spill for Sort/TopN and hash aggregates</text>
  <text class="t s" x="1540" y="318">GROUP BY over 504M rows: ~20 s on three 3-CPU workers</text>

  <rect x="1188" y="334" width="326" height="118" rx="7" class="box"/>
  <text class="t h2" x="1202" y="356">Storage readers</text>
  <text class="t b" x="1202" y="374">Parquet with statistics pruning · Delta log replay ·</text>
  <text class="t b" x="1202" y="388">Iceberg · ADLS Gen2 through workload identity</text>
  <text class="t b" x="1202" y="402">Byte-bounded decoded-batch cache; pinned identities</text>
  <rect x="1202" y="412" width="298" height="30" rx="5" class="target"/>
  <text class="t s" x="1212" y="431">Delta checkpoints, table writes · gate: differential suite</text>

  <rect x="1526" y="334" width="326" height="118" rx="7" class="box"/>
  <text class="t h2" x="1540" y="356">Product record store</text>
  <text class="t b" x="1540" y="374">Typed records: datasets, charts, dashboards, DLM</text>
  <text class="t b" x="1540" y="388">definitions. Immutable, digest-verified documents;</text>
  <text class="t b" x="1540" y="402">revision-checked writes; CAS head publication on ADLS</text>
  <rect x="1540" y="412" width="298" height="30" rx="5" class="target"/>
  <text class="t s" x="1550" y="431">General DML, MVCC, point-in-time restore · gate: retirement</text>

  <rect x="1188" y="462" width="664" height="60" rx="7" class="target"/>
  <text class="t h2" x="1202" y="484">Targets with named gates</text>
  <text class="t b" x="1202" y="502">Aggregate and join spill under pressure · exchange flow control · cost-based join order · a client wire</text>
  <text class="t b" x="1202" y="516">protocol (JDBC/ODBC) · 1.90× Trino on the declared corpus (today 1.26×) · soak, backup/restore, upgrade</text>

  <rect x="1188" y="532" width="664" height="54" rx="7" class="box"/>
  <text class="t h2" x="1202" y="551">Authority today: PostgreSQL  <tspan class="s">kaveonmeta</tspan></text>
  <text class="t b" x="1202" y="568">Source of truth for product records while the migration runs: outbox → checkpointed backfill → exact</text>
  <text class="t b" x="1202" y="581">reconciliation → fencing → cutover. Datasets 9/9, charts 70/70, dashboards 8/8 reconciled; no cutover authorised.</text>

  <!-- ─── Flows between columns ─────────────────────────────────────────── -->
  <path d="M348 548 L392 548" class="thin" marker-end="url(#ar-g)"/>
  <path d="M704 544 C 740 544, 740 556, 766 556" class="flow a" marker-end="url(#ar-a)"/>
  <path d="M1108 413 C 1140 413, 1140 258, 1170 258" class="flow a" marker-end="url(#ar-a)"/>
  <path d="M1108 485 C 1140 485, 1140 470, 1170 470 L1500 470 C 1514 470, 1514 458, 1526 445" class="flow tx" marker-end="url(#ar-t)"/>

  <!-- ─── Two paths ─────────────────────────────────────────────────────── -->
  <text class="t lbl grey" x="48" y="642">The two paths, end to end</text>

  <rect x="48" y="656" width="1822" height="92" rx="10" class="region"/>
  <text class="t h2 blue" x="66" y="682">Analytical path</text>
  <text class="t b" x="66" y="708">question in Chat → proxy stamps identity → DLM routes the dataset and resolves metric, dimension, values → on a tie, <tspan class="ink" font-weight="600">clarify</tspan> → precomputed? <tspan class="ink" font-weight="600">answer in ~0.1 s</tspan> → else compile SQL → Engine bridge → coordinator → workers → exact result, SQL shown</text>
  <text class="t s" x="66" y="732">Same question, same answer, every time; no model in the loop. Live over 504M rows: 20–35 s today; the DLM builds context so the second ask is instant.</text>

  <rect x="48" y="762" width="1822" height="92" rx="10" class="region"/>
  <text class="t h2 orange" x="66" y="788">Transactional path</text>
  <text class="t b" x="66" y="814">save a chart or dataset → API validates and writes PostgreSQL atomically with an outbox event → replay builds the typed record → revision check → digest → conditional head publication on ADLS → audit; conflicts and indeterminate outcomes surface as proofs</text>
  <text class="t s" x="66" y="838">Product records only, not general row DML. PostgreSQL stays authoritative until reconciliation, fencing, restart and rollback evidence exist for every family.</text>

  <!-- ─── Deployment strip ──────────────────────────────────────────────── -->
  <text class="t lbl grey" x="48" y="896">Where it runs</text>
  <rect x="48" y="910" width="590" height="150" rx="10" class="box"/>
  <text class="t h2" x="66" y="936">Public demo — kaveon.vercel.app</text>
  <text class="t b" x="66" y="956">Studio on Vercel · API on Azure Container Apps · Azure PostgreSQL</text>
  <text class="t b" x="66" y="972">Flexible Server (B1ms) holds both metadata and data</text>
  <text class="t s" x="66" y="998">No KaveonDB here yet: PostgreSQL answers every query, which is why a</text>
  <text class="t s" x="66" y="1013">504M-row table cannot live on it. Datasets are small public tables.</text>
  <text class="t s" x="66" y="1040">CI deploys every push to dev.</text>

  <rect x="664" y="910" width="590" height="150" rx="10" class="box"/>
  <text class="t h2" x="682" y="936">Qualification cluster — AKS (work tenant)</text>
  <text class="t b" x="682" y="956">Coordinator + 3 workers · API · Studio · in-cluster PostgreSQL</text>
  <text class="t b" x="682" y="972">Lake on ADLS Gen2, workload identity; images by digest from ACR</text>
  <text class="t s" x="682" y="998">Where every number on this diagram was measured. Recreated from</text>
  <text class="t s" x="682" y="1013">Bicep and Helm; PostgreSQL restored from a retained disk snapshot.</text>
  <text class="t s" x="682" y="1040">Deleted at weekends for cost; rebuilt Monday.</text>

  <rect x="1280" y="910" width="590" height="150" rx="10" class="target"/>
  <text class="t h2" x="1298" y="936">Product host — Oracle Cloud Always Free (target)</text>
  <text class="t b" x="1298" y="956">Ampere A1, 4 OCPU / 24 GB · Compose: coordinator + workers + API</text>
  <text class="t b" x="1298" y="972">+ PostgreSQL · Caddy TLS · lake on host disk, then S3-compatible</text>
  <text class="t s" x="1298" y="998">Gate: an Oracle account and S3 reads in the Engine. Vercel keeps Studio;</text>
  <text class="t s" x="1298" y="1013">API_URL moves to the host; Azure PostgreSQL retires after a verified restore.</text>

  <!-- footer -->
  <text class="t s" x="48" y="1108">Assessed against dev at 757606c and Engine digest 4a165e94… on kaveon-test-aks, September 12, 2026. Measurements are recorded in HANDSHAKE.md with query IDs. Where this diagram and the code disagree, the code is right and the diagram is out of date.</text>
</svg>
