<svg xmlns="http://www.w3.org/2000/svg" viewBox="0 0 392 118" fill="none" role="img" aria-label="Lens">
  <defs><linearGradient id="c" x1="0" y1="0" x2="0" y2="1"><stop offset="0" stop-color="#e8c547"/><stop offset="1" stop-color="#b8860b"/></linearGradient></defs>
  <!-- Crosshair ⊙ mark — same size/weight as Forge's O -->
  <circle cx="59" cy="59.30" r="40.00" fill="none" stroke="url(#c)" stroke-width="5.68"/>
  <path d="M 68.85 48.36 L 54.45 45.30 L 44.60 56.24 L 49.15 70.24 L 63.55 73.30 L 73.40 62.36 Z" opacity="0.12" fill="url(#c)"/>
  <line x1="68.85" y1="48.36" x2="59" y2="20.82" stroke="url(#c)" stroke-width="6.04" stroke-linecap="round"/>
  <line x1="54.45" y1="45.30" x2="25.67" y2="40.06" stroke="url(#c)" stroke-width="6.04" stroke-linecap="round"/>
  <line x1="44.60" y1="56.24" x2="25.67" y2="78.54" stroke="url(#c)" stroke-width="6.04" stroke-linecap="round"/>
  <line x1="49.15" y1="70.24" x2="59" y2="97.78" stroke="url(#c)" stroke-width="6.04" stroke-linecap="round"/>
  <line x1="63.55" y1="73.30" x2="92.32" y2="78.54" stroke="url(#c)" stroke-width="6.04" stroke-linecap="round"/>
  <line x1="73.40" y1="62.36" x2="92.32" y2="40.06" stroke="url(#c)" stroke-width="6.04" stroke-linecap="round"/>
  <!-- Chamfered L — scaled to 0.88 of cap-height, nudged down 2px to match text baseline -->
  <g transform="translate(114,24) scale(2.47)"><path d="M 0 0 L 7 0 L 7 21 L 16 21 L 18 23.5 L 18 28 L 0 28 Z" fill="url(#c)"/><path d="M 0 0 L 7 0 L 7 3.5 L 0 3.5 Z" fill="#d4a017" opacity="0.18"/></g>
  <!-- ENS — weight 700, tight letter-spacing, matched to L height -->
  <text x="164" y="96" font-family="Inter,'Segoe UI',system-ui,sans-serif" font-weight="700" font-size="95" letter-spacing="0" fill="url(#c)">ENS</text>
</svg>
