<svg xmlns="http://www.w3.org/2000/svg" viewBox="0 0 880 800" role="img" aria-label="Kaveon architecture: browser to Next.js web to FastAPI to your data sources">
<defs>
  <linearGradient id="g_canvas" x1="0" y1="0" x2="0" y2="1"><stop offset="0" stop-color="#0e1626"/><stop offset="1" stop-color="#0a0f18"/></linearGradient>
  <radialGradient id="g_glow" cx="0.5" cy="0.5" r="0.5"><stop offset="0" stop-color="#46c7d9" stop-opacity="0.40"/><stop offset="1" stop-color="#46c7d9" stop-opacity="0"/></radialGradient>
  <linearGradient id="sheen" x1="0" y1="0" x2="0" y2="1"><stop offset="0" stop-color="#ffffff" stop-opacity="0.10"/><stop offset="1" stop-color="#ffffff" stop-opacity="0"/></linearGradient>
  <linearGradient id="g_kaveon" x1="0" y1="0" x2="0" y2="1"><stop offset="0" stop-color="#7be0ef"/><stop offset="1" stop-color="#2aa6bb"/></linearGradient>
  <linearGradient id="g_head" x1="0" y1="0" x2="0" y2="1"><stop offset="0" stop-color="#0f2a30"/><stop offset="1" stop-color="#0a1c20"/></linearGradient>
  <linearGradient id="card_l" x1="0" y1="0" x2="0" y2="1"><stop offset="0" stop-color="#111d2c"/><stop offset="1" stop-color="#0f2a30"/></linearGradient>
  <linearGradient id="g_slab" x1="0" y1="0" x2="0" y2="1"><stop offset="0" stop-color="#0f2a30"/><stop offset="1" stop-color="#09181c"/></linearGradient>
  <filter id="soft" x="-40%" y="-40%" width="180%" height="180%"><feDropShadow dx="0" dy="6" stdDeviation="9" flood-color="#000000" flood-opacity="0.45"/></filter>
  <filter id="blur6" x="-80%" y="-80%" width="260%" height="260%"><feGaussianBlur stdDeviation="7"/></filter>
  <pattern id="dots" width="26" height="26" patternUnits="userSpaceOnUse"><circle cx="1.4" cy="1.4" r="1.4" fill="#2a3b55" fill-opacity="0.30"/></pattern>
  <marker id="arw" viewBox="0 0 10 10" refX="8" refY="5" markerWidth="6.5" markerHeight="6.5" orient="auto-start-reverse"><path d="M0 1 L9 5 L0 9 Z" fill="#46c7d9"/></marker>
  <marker id="arw_m" viewBox="0 0 10 10" refX="8" refY="5" markerWidth="6" markerHeight="6" orient="auto-start-reverse"><path d="M0 1 L9 5 L0 9 Z" fill="#5b7290"/></marker>
  </defs>
<rect x="4" y="4" width="872" height="792" rx="24" fill="url(#g_canvas)" stroke="#1c2942" stroke-width="1.5"/><rect x="4" y="4" width="872" height="792" rx="24" fill="url(#dots)"/><ellipse cx="440.0" cy="70" rx="369.59999999999997" ry="150" fill="url(#g_glow)"/>
<text x="34" y="34" font-family="Inter,'Segoe UI',system-ui,sans-serif" font-weight="700" font-size="11" letter-spacing="3" fill="#3f5a6b">SELF-HOSTED OPEN-SOURCE ANALYTICS  ·  TALK TO YOUR DATA</text>
<rect x="48" y="48" width="784" height="84" rx="18" fill="url(#g_head)" stroke="url(#g_kaveon)" stroke-width="1.75" filter="url(#soft)"/><rect x="49" y="49" width="782" height="35" rx="17" fill="url(#sheen)"/><ellipse cx="104" cy="90.0" rx="31" ry="31" fill="#46c7d9" opacity="0.22" filter="url(#blur6)"/><g><path d="M 110.40 82.89 L 101.04 80.90 L 94.64 88.01 L 97.60 97.11 L 106.96 99.10 L 113.36 91.99 Z" fill="url(#g_kaveon)" opacity="0.14"/><circle cx="104.00" cy="90.00" r="26.00" fill="none" stroke="url(#g_kaveon)" stroke-width="3.64"/><line x1="110.40" y1="82.89" x2="104.00" y2="64.99" stroke="url(#g_kaveon)" stroke-width="3.86" stroke-linecap="round"/><line x1="101.04" y1="80.90" x2="82.34" y2="77.49" stroke="url(#g_kaveon)" stroke-width="3.86" stroke-linecap="round"/><line x1="94.64" y1="88.01" x2="82.34" y2="102.51" stroke="url(#g_kaveon)" stroke-width="3.86" stroke-linecap="round"/><line x1="97.60" y1="97.11" x2="104.00" y2="115.01" stroke="url(#g_kaveon)" stroke-width="3.86" stroke-linecap="round"/><line x1="106.96" y1="99.10" x2="125.66" y2="102.51" stroke="url(#g_kaveon)" stroke-width="3.86" stroke-linecap="round"/><line x1="113.36" y1="91.99" x2="125.66" y2="77.49" stroke="url(#g_kaveon)" stroke-width="3.86" stroke-linecap="round"/></g><text x="152" y="84.0" font-family="Inter,'Segoe UI',system-ui,sans-serif" font-weight="800" font-size="26" letter-spacing="0.4" fill="#eef4fb">KAVEON</text><text x="152" y="110.0" font-family="Inter,'Segoe UI',system-ui,sans-serif" font-weight="500" font-size="14.5" font-style="italic" fill="#46c7d9">Talk to your data.</text><text x="810" y="94.0" text-anchor="end" font-family="Inter,'Segoe UI',system-ui,sans-serif" font-weight="700" font-size="11" letter-spacing="2.5" fill="#6f8bad">MONOREPO  ·  MULTI-PROVIDER AUTH</text>
<rect x="48" y="152" width="784" height="64" rx="14" fill="#0f1a29" stroke="#33465f" stroke-width="1.4"/>
<rect x="49" y="153" width="782" height="27" rx="13" fill="url(#sheen)"/>
<circle cx="80" cy="184.0" r="6" fill="#e0975a"/><circle cx="98" cy="184.0" r="6" fill="#e8c15a"/><circle cx="116" cy="184.0" r="6" fill="#5fce85"/>
<text x="140" y="179" font-family="Inter,'Segoe UI',system-ui,sans-serif" font-weight="700" font-size="16" fill="#cdd8e6">Your Browser</text>
<text x="140" y="199" font-family="Inter,'Segoe UI',system-ui,sans-serif" font-weight="500" font-size="12.5" fill="#8aa0b8">http://localhost:3000  ·  sign in: GitHub  /  Google  /  Microsoft</text>
<text x="810" y="188.0" text-anchor="end" font-family="Inter,'Segoe UI',system-ui,sans-serif" font-weight="700" font-size="11" letter-spacing="2" fill="#5b7290">RBAC · 4 ROLES</text>
<path d="M 440 216 L 440 278" fill="none" stroke="#46c7d9" stroke-width="2.2" marker-end="url(#arw)" opacity="0.85"/><rect x="385" y="236" width="110" height="22" rx="11" fill="#0d1a2b" stroke="#33465f" stroke-width="1"/><text x="440" y="251" text-anchor="middle" font-family="Inter,'Segoe UI',system-ui,sans-serif" font-weight="600" font-size="11" fill="#7fc4d2">HTTPS  ·  NextAuth</text>
<rect x="48" y="278" width="784" height="132" rx="16" fill="url(#card_l)" stroke="url(#g_kaveon)" stroke-width="1.6" filter="url(#soft)"/><rect x="49" y="279" width="782" height="55" rx="15" fill="url(#sheen)"/><ellipse cx="90" cy="322" rx="25" ry="25" fill="#46c7d9" opacity="0.22" filter="url(#blur6)"/><g><path d="M 94.92 316.53 L 87.73 315.00 L 82.80 320.47 L 85.08 327.47 L 92.27 329.00 L 97.20 323.53 Z" fill="url(#g_kaveon)" opacity="0.14"/><circle cx="90.00" cy="322.00" r="20.00" fill="none" stroke="url(#g_kaveon)" stroke-width="2.80"/><line x1="94.92" y1="316.53" x2="90.00" y2="302.76" stroke="url(#g_kaveon)" stroke-width="2.97" stroke-linecap="round"/><line x1="87.73" y1="315.00" x2="73.34" y2="312.38" stroke="url(#g_kaveon)" stroke-width="2.97" stroke-linecap="round"/><line x1="82.80" y1="320.47" x2="73.34" y2="331.62" stroke="url(#g_kaveon)" stroke-width="2.97" stroke-linecap="round"/><line x1="85.08" y1="327.47" x2="90.00" y2="341.24" stroke="url(#g_kaveon)" stroke-width="2.97" stroke-linecap="round"/><line x1="92.27" y1="329.00" x2="106.66" y2="331.62" stroke="url(#g_kaveon)" stroke-width="2.97" stroke-linecap="round"/><line x1="97.20" y1="323.53" x2="106.66" y2="312.38" stroke="url(#g_kaveon)" stroke-width="2.97" stroke-linecap="round"/></g><text x="132" y="318" font-family="Inter,'Segoe UI',system-ui,sans-serif" font-weight="800" font-size="20" fill="#46c7d9">kaveon-web</text><text x="132" y="337" font-family="Inter,'Segoe UI',system-ui,sans-serif" font-weight="600" font-size="11.5" letter-spacing="2" fill="#8aa0b8">Next.js 15 · TypeScript · React 19</text><line x1="70" y1="356" x2="762" y2="356" stroke="#2a3b55" stroke-width="1"/><rect x="70.0" y="372.0" width="68.7" height="24" rx="12" fill="#46c7d9" fill-opacity="0.13" stroke="#46c7d9" stroke-opacity="0.42" stroke-width="1"/><text x="104.4" y="388.0" text-anchor="middle" font-family="Inter,'Segoe UI',system-ui,sans-serif" font-weight="600" font-size="12" fill="#46c7d9">SQL Lab</text><rect x="146.7" y="372.0" width="110.5" height="24" rx="12" fill="#46c7d9" fill-opacity="0.13" stroke="#46c7d9" stroke-opacity="0.42" stroke-width="1"/><text x="202.0" y="388.0" text-anchor="middle" font-family="Inter,'Segoe UI',system-ui,sans-serif" font-weight="600" font-size="12" fill="#46c7d9">Chart Builder</text><rect x="265.2" y="372.0" width="89.6" height="24" rx="12" fill="#46c7d9" fill-opacity="0.13" stroke="#46c7d9" stroke-opacity="0.42" stroke-width="1"/><text x="310.0" y="388.0" text-anchor="middle" font-family="Inter,'Segoe UI',system-ui,sans-serif" font-weight="600" font-size="12" fill="#46c7d9">Dashboards</text><rect x="362.8" y="372.0" width="103.5" height="24" rx="12" fill="#46c7d9" fill-opacity="0.13" stroke="#46c7d9" stroke-opacity="0.42" stroke-width="1"/><text x="414.6" y="388.0" text-anchor="middle" font-family="Inter,'Segoe UI',system-ui,sans-serif" font-weight="600" font-size="12" fill="#46c7d9">AI Assistant</text><rect x="474.3" y="372.0" width="103.5" height="24" rx="12" fill="#46c7d9" fill-opacity="0.13" stroke="#46c7d9" stroke-opacity="0.42" stroke-width="1"/><text x="526.1" y="388.0" text-anchor="middle" font-family="Inter,'Segoe UI',system-ui,sans-serif" font-weight="600" font-size="12" fill="#46c7d9">ECharts + GL</text><rect x="585.8" y="372.0" width="110.5" height="24" rx="12" fill="#46c7d9" fill-opacity="0.13" stroke="#46c7d9" stroke-opacity="0.42" stroke-width="1"/><text x="641.1" y="388.0" text-anchor="middle" font-family="Inter,'Segoe UI',system-ui,sans-serif" font-weight="600" font-size="12" fill="#46c7d9">Monaco Editor</text>
<path d="M 440 410 L 440 472" fill="none" stroke="#46c7d9" stroke-width="2.2" marker-end="url(#arw)" opacity="0.85"/><rect x="369" y="430" width="142" height="22" rx="11" fill="#0d1a2b" stroke="#33465f" stroke-width="1"/><text x="440" y="445" text-anchor="middle" font-family="Inter,'Segoe UI',system-ui,sans-serif" font-weight="600" font-size="11" fill="#7fc4d2">REST  ·  signed proxy</text>
<rect x="48" y="472" width="784" height="132" rx="16" fill="url(#card_l)" stroke="url(#g_kaveon)" stroke-width="1.6" filter="url(#soft)"/><rect x="49" y="473" width="782" height="55" rx="15" fill="url(#sheen)"/><ellipse cx="90" cy="516" rx="25" ry="25" fill="#46c7d9" opacity="0.22" filter="url(#blur6)"/><g><path d="M 94.92 510.53 L 87.73 509.00 L 82.80 514.47 L 85.08 521.47 L 92.27 523.00 L 97.20 517.53 Z" fill="url(#g_kaveon)" opacity="0.14"/><circle cx="90.00" cy="516.00" r="20.00" fill="none" stroke="url(#g_kaveon)" stroke-width="2.80"/><line x1="94.92" y1="510.53" x2="90.00" y2="496.76" stroke="url(#g_kaveon)" stroke-width="2.97" stroke-linecap="round"/><line x1="87.73" y1="509.00" x2="73.34" y2="506.38" stroke="url(#g_kaveon)" stroke-width="2.97" stroke-linecap="round"/><line x1="82.80" y1="514.47" x2="73.34" y2="525.62" stroke="url(#g_kaveon)" stroke-width="2.97" stroke-linecap="round"/><line x1="85.08" y1="521.47" x2="90.00" y2="535.24" stroke="url(#g_kaveon)" stroke-width="2.97" stroke-linecap="round"/><line x1="92.27" y1="523.00" x2="106.66" y2="525.62" stroke="url(#g_kaveon)" stroke-width="2.97" stroke-linecap="round"/><line x1="97.20" y1="517.53" x2="106.66" y2="506.38" stroke="url(#g_kaveon)" stroke-width="2.97" stroke-linecap="round"/></g><text x="132" y="512" font-family="Inter,'Segoe UI',system-ui,sans-serif" font-weight="800" font-size="20" fill="#46c7d9">kaveon-api</text><text x="132" y="531" font-family="Inter,'Segoe UI',system-ui,sans-serif" font-weight="600" font-size="11.5" letter-spacing="2" fill="#8aa0b8">FastAPI · Python 3.11</text><line x1="70" y1="550" x2="762" y2="550" stroke="#2a3b55" stroke-width="1"/><rect x="70.0" y="566.0" width="138.3" height="24" rx="12" fill="#46c7d9" fill-opacity="0.13" stroke="#46c7d9" stroke-opacity="0.42" stroke-width="1"/><text x="139.2" y="582.0" text-anchor="middle" font-family="Inter,'Segoe UI',system-ui,sans-serif" font-weight="600" font-size="12" fill="#46c7d9">NextAuth session</text><rect x="216.3" y="566.0" width="124.4" height="24" rx="12" fill="#46c7d9" fill-opacity="0.13" stroke="#46c7d9" stroke-opacity="0.42" stroke-width="1"/><text x="278.5" y="582.0" text-anchor="middle" font-family="Inter,'Segoe UI',system-ui,sans-serif" font-weight="600" font-size="12" fill="#46c7d9">RBAC middleware</text><rect x="348.7" y="566.0" width="103.5" height="24" rx="12" fill="#46c7d9" fill-opacity="0.13" stroke="#46c7d9" stroke-opacity="0.42" stroke-width="1"/><text x="400.5" y="582.0" text-anchor="middle" font-family="Inter,'Segoe UI',system-ui,sans-serif" font-weight="600" font-size="12" fill="#46c7d9">Semantic SQL</text><rect x="460.2" y="566.0" width="75.7" height="24" rx="12" fill="#46c7d9" fill-opacity="0.13" stroke="#46c7d9" stroke-opacity="0.42" stroke-width="1"/><text x="498.1" y="582.0" text-anchor="middle" font-family="Inter,'Segoe UI',system-ui,sans-serif" font-weight="600" font-size="12" fill="#46c7d9">AI proxy</text><rect x="543.9" y="566.0" width="96.6" height="24" rx="12" fill="#46c7d9" fill-opacity="0.13" stroke="#46c7d9" stroke-opacity="0.42" stroke-width="1"/><text x="592.2" y="582.0" text-anchor="middle" font-family="Inter,'Segoe UI',system-ui,sans-serif" font-weight="600" font-size="12" fill="#46c7d9">pyodbc pool</text><rect x="70.0" y="596.0" width="124.4" height="24" rx="12" fill="#46c7d9" fill-opacity="0.13" stroke="#46c7d9" stroke-opacity="0.42" stroke-width="1"/><text x="132.2" y="612.0" text-anchor="middle" font-family="Inter,'Segoe UI',system-ui,sans-serif" font-weight="600" font-size="12" fill="#46c7d9">5-min heartbeat</text>
<path d="M 440 604 L 440 666" fill="none" stroke="#46c7d9" stroke-width="2.2" marker-end="url(#arw)" opacity="0.85"/><rect x="356" y="624" width="167" height="22" rx="11" fill="#0d1a2b" stroke="#33465f" stroke-width="1"/><text x="440" y="639" text-anchor="middle" font-family="Inter,'Segoe UI',system-ui,sans-serif" font-weight="600" font-size="11" fill="#7fc4d2">ODBC  ·  native drivers</text>
<rect x="48" y="666" width="784" height="104" rx="16" fill="url(#g_slab)" stroke="url(#g_kaveon)" stroke-width="1.6" filter="url(#soft)"/>
<rect x="49" y="667" width="782" height="44" rx="15" fill="url(#sheen)"/>
<text x="72" y="698" font-family="Inter,'Segoe UI',system-ui,sans-serif" font-weight="800" font-size="15" fill="#bfeaf1">Data layer</text>
<rect x="72" y="710" width="200" height="44" rx="12" fill="#46c7d9" fill-opacity="0.10" stroke="#46c7d9" stroke-opacity="0.4" stroke-width="1.2"/>
<text x="172" y="728" text-anchor="middle" font-family="Inter,'Segoe UI',system-ui,sans-serif" font-weight="700" font-size="12.5" fill="#46c7d9">Metadata DB</text>
<text x="172" y="745" text-anchor="middle" font-family="Inter,'Segoe UI',system-ui,sans-serif" font-weight="500" font-size="10.5" fill="#8aa0b8">Kaveon app data</text>
<text x="300" y="706" font-family="Inter,'Segoe UI',system-ui,sans-serif" font-weight="600" font-size="11" letter-spacing="1.5" fill="#8aa0b8">YOUR DATA SOURCES  (1..N)</text>
<rect x="300.0" y="718.0" width="89.6" height="24" rx="12" fill="#8fd6e2" fill-opacity="0.13" stroke="#8fd6e2" stroke-opacity="0.42" stroke-width="1"/><text x="344.8" y="734.0" text-anchor="middle" font-family="Inter,'Segoe UI',system-ui,sans-serif" font-weight="600" font-size="12" fill="#8fd6e2">Fabric SQL</text><rect x="397.6" y="718.0" width="82.6" height="24" rx="12" fill="#8fd6e2" fill-opacity="0.13" stroke="#8fd6e2" stroke-opacity="0.42" stroke-width="1"/><text x="438.9" y="734.0" text-anchor="middle" font-family="Inter,'Segoe UI',system-ui,sans-serif" font-weight="600" font-size="12" fill="#8fd6e2">Azure SQL</text><rect x="488.2" y="718.0" width="89.6" height="24" rx="12" fill="#8fd6e2" fill-opacity="0.13" stroke="#8fd6e2" stroke-opacity="0.42" stroke-width="1"/><text x="533.0" y="734.0" text-anchor="middle" font-family="Inter,'Segoe UI',system-ui,sans-serif" font-weight="600" font-size="12" fill="#8fd6e2">PostgreSQL</text><rect x="585.8" y="718.0" width="54.8" height="24" rx="12" fill="#8fd6e2" fill-opacity="0.13" stroke="#8fd6e2" stroke-opacity="0.42" stroke-width="1"/><text x="613.2" y="734.0" text-anchor="middle" font-family="Inter,'Segoe UI',system-ui,sans-serif" font-weight="600" font-size="12" fill="#8fd6e2">MySQL</text><rect x="648.6" y="718.0" width="54.8" height="24" rx="12" fill="#8fd6e2" fill-opacity="0.13" stroke="#8fd6e2" stroke-opacity="0.42" stroke-width="1"/><text x="676.0" y="734.0" text-anchor="middle" font-family="Inter,'Segoe UI',system-ui,sans-serif" font-weight="600" font-size="12" fill="#8fd6e2">Trino</text><rect x="711.4" y="718.0" width="82.6" height="24" rx="12" fill="#8fd6e2" fill-opacity="0.13" stroke="#8fd6e2" stroke-opacity="0.42" stroke-width="1"/><text x="752.8" y="734.0" text-anchor="middle" font-family="Inter,'Segoe UI',system-ui,sans-serif" font-weight="600" font-size="12" fill="#8fd6e2">StarRocks</text>
</svg>
