<svg xmlns="http://www.w3.org/2000/svg" width="1920" height="1080" viewBox="0 0 1920 1080">
<defs><style>
.bg{fill:#fafbfd}.t{font:700 38px Inter,Arial,sans-serif;fill:#102a56}.s{font:400 16px Inter,Arial,sans-serif;fill:#61728c}.h{font:700 17px Inter,Arial,sans-serif;fill:#102a56}.b{font:400 14px Inter,Arial,sans-serif;fill:#3f5879}.k{font:700 13px Inter,Arial,sans-serif;letter-spacing:2px;fill:#2f659f}.box{stroke:#337bc2;stroke-width:2;rx:10}.cur{fill:#eef6ff}.alp{fill:#f1f8f5;stroke:#278a78}.tar{fill:#fffaf0;stroke:#d18a2b;stroke-dasharray:8 6}.leg{fill:#f1f3f6;stroke:#7b8797;stroke-dasharray:8 6}.ln{fill:none;stroke:#2f7bc4;stroke-width:3;marker-end:url(#a)}.or{fill:none;stroke:#d27a21;stroke-width:3;marker-end:url(#o)}.small{font:400 12px Inter,Arial,sans-serif;fill:#61728c}.badge{font:700 10px Inter,Arial,sans-serif;letter-spacing:1px}.white{fill:#fff}.foot{font:400 13px Inter,Arial,sans-serif;fill:#52647e}
</style><marker id="a" markerWidth="10" markerHeight="10" refX="8" refY="5" orient="auto"><path d="M0 0L10 5L0 10z" fill="#2f7bc4"/></marker><marker id="o" markerWidth="10" markerHeight="10" refX="8" refY="5" orient="auto"><path d="M0 0L10 5L0 10z" fill="#d27a21"/></marker></defs>
<rect width="1920" height="1080" class="bg"/>
<text x="55" y="62" class="t">KAVEON | Future-state unified data intelligence</text><text x="55" y="91" class="s">One KaveonDB authority for product records and customer-owned lake analytics</text>
<text x="55" y="133" class="k">DATA SOURCES</text><text x="850" y="133" class="k">KAVEON PLATFORM</text><text x="1510" y="133" class="k">PRODUCT SURFACES</text>
<rect x="55" y="151" width="330" height="100" class="box cur"/><text x="80" y="183" class="h">Customer lake</text><text x="80" y="208" class="b">Local and ADLS Gen2 Parquet / Delta</text><text x="80" y="230" class="b">Snapshot-aware reads</text>
<rect x="55" y="270" width="330" height="100" class="box cur"/><text x="80" y="302" class="h">API-managed sources</text><text x="80" y="327" class="b">Cataloged connection metadata</text><text x="80" y="349" class="b">Passthrough SQL through FastAPI</text>
<rect x="55" y="389" width="330" height="100" class="box cur"/><text x="80" y="421" class="h">Users and Entra identity</text><text x="80" y="446" class="b">Session, roles and ownership</text><text x="80" y="468" class="b">Server-asserted identity</text>
<rect x="55" y="508" width="330" height="100" class="box cur"/><text x="80" y="540" class="h">Curated file inputs</text><text x="80" y="565" class="b">Open-source data as registered files</text><text x="80" y="587" class="b">Human-run curation scripts</text>
<rect x="500" y="151" width="900" height="457" class="box cur"/><text x="790" y="190" class="t" style="font-size:30px">CORE PLATFORM</text><text x="800" y="216" class="s">Studio · deterministic DLM · distributed Engine foundations</text>
<rect x="535" y="245" width="250" height="130" class="box cur"/><text x="560" y="280" class="h">Kaveon Studio</text><text x="560" y="307" class="b">Chat · Catalog · SQL Lab</text><text x="560" y="330" class="b">Charts · dashboards</text><text x="560" y="353" class="b">Data management surfaces</text>
<rect x="825" y="245" width="250" height="130" class="box cur"/><text x="850" y="280" class="h">FastAPI control plane</text><text x="850" y="307" class="b">Auth · policy · product APIs</text><text x="850" y="330" class="b">Source registration · telemetry</text><text x="850" y="353" class="b">Trusted proxy boundary</text>
<rect x="1115" y="245" width="250" height="130" class="box cur"/><text x="1140" y="280" class="h">Deterministic DLM</text><text x="1140" y="307" class="b">Intent and dataset routing</text><text x="1140" y="330" class="b">Compiled context answers</text><text x="1140" y="353" class="b">Clarification and SQL contracts</text><rect x="535" y="410" width="410" height="155" class="box alp"/><text x="565" y="447" class="h">KaveonDB record layer</text><text x="565" y="476" class="b">Typed product records</text><text x="565" y="500" class="b">Revision CAS · ownership</text><text x="565" y="524" class="b">Checkpointed migration path</text><rect x="975" y="410" width="390" height="155" class="box alp"/><text x="1005" y="447" class="h">Engine coordinator</text><text x="1005" y="476" class="b">Parse · optimize · stage graph</text><text x="1005" y="500" class="b">Admission · fragments · evidence</text><text x="1005" y="524" class="b">Workers execute Arrow batches</text><rect x="1510" y="151" width="355" height="100" class="box cur"/><text x="1535" y="183" class="h">SQL Lab</text><text x="1535" y="208" class="b">Ad-hoc SQL and saved queries</text><text x="1535" y="230" class="b">Bounded results</text>
<rect x="1510" y="270" width="355" height="100" class="box cur"/><text x="1535" y="302" class="h">Charts and dashboards</text><text x="1535" y="327" class="b">Product visualizations</text><text x="1535" y="349" class="b">Shared data experiences</text>
<rect x="1510" y="389" width="355" height="100" class="box cur"/><text x="1535" y="421" class="h">Chat and DLM answers</text><text x="1535" y="446" class="b">Deterministic question path</text><text x="1535" y="468" class="b">Context or SQL response</text>
<rect x="1510" y="508" width="355" height="100" class="box cur"/><text x="1535" y="540" class="h">Query history and telemetry</text><text x="1535" y="565" class="b">Plans · stages · timings · audit</text><text x="1535" y="587" class="b">Per-query evidence</text>
<path d="M385 201H500" class="ln"/><path d="M385 320H500" class="ln"/><path d="M385 439H500" class="ln"/><path d="M385 558H500" class="ln"/><path d="M1400 201H1510" class="ln"/><path d="M1400 320H1510" class="ln"/><path d="M1400 439H1510" class="or"/><path d="M1400 558H1510" class="ln"/>
<text x="55" y="660" class="k">EXECUTION AND DURABILITY</text>
<rect x="55" y="680" width="1810" height="135" class="box alp"/><text x="85" y="714" class="h">Distributed Engine execution</text><text x="85" y="742" class="b">Arrow exchange · joins · aggregates · Sort/TopN · bounded retry</text><text x="85" y="767" class="b">Workers execute analytical SQL; DLM context answers do not run on workers</text><rect x="55" y="840" width="430" height="105" class="box cur"/><text x="80" y="874" class="h">Customer-owned storage</text><text x="80" y="900" class="b">ADLS Gen2 · Parquet · Delta</text><text x="80" y="923" class="b">Object manifests and snapshots</text>
<rect x="520" y="840" width="430" height="105" class="box alp"/><text x="545" y="874" class="h">Durable product state</text><text x="545" y="900" class="b">Typed records and revisions</text><text x="545" y="923" class="b">Ownership and audit evidence</text>
<rect x="985" y="840" width="430" height="105" class="box tar"/><text x="1010" y="874" class="h">Transactional kernel</text><text x="1010" y="900" class="b">General DML · isolation · durable recovery</text><text x="1010" y="923" class="b">Target before PostgreSQL retirement</text><rect x="1450" y="840" width="415" height="105" class="box tar"/><text x="1475" y="874" class="h">KaveonDB durable authority</text><text x="1475" y="900" class="b">One governed product and data model</text><text x="1475" y="923" class="b">Journal · manifests · backup · restore</text><path d="M760 608V680" class="ln"/><path d="M1170 608V680" class="or"/><path d="M270 815V840" class="ln"/><path d="M735 815V840" class="ln"/><path d="M1200 815V840" class="or"/>
<text x="55" y="1002" class="foot">Analytical path: request → route → plan → distributed execute → result · Transactional path: validate → revision CAS → commit → audit → recovery</text>
<text x="55" y="1032" class="foot">Talk to your data · future-state product architecture</text>
<g aria-label="animated data flows" opacity="0.9">
 <circle r="5" fill="#2f7bc4"><animateMotion dur="4.8s" repeatCount="indefinite" path="M385 201 H500"/></circle>
 <circle r="5" fill="#2f7bc4"><animateMotion dur="5.2s" repeatCount="indefinite" path="M1400 201 H1510"/></circle>
 <circle r="5" fill="#d27a21"><animateMotion dur="5.6s" repeatCount="indefinite" path="M1400 439 H1510"/></circle>
 <circle r="5" fill="#2f7bc4"><animateMotion dur="4.2s" repeatCount="indefinite" path="M760 608 V680"/></circle>
 <circle r="5" fill="#d27a21"><animateMotion dur="4.6s" repeatCount="indefinite" path="M1170 608 V680"/></circle>
 <circle r="5" fill="#2f7bc4"><animateMotion dur="5.4s" repeatCount="indefinite" path="M270 815 V840"/></circle>
</g>
</svg>

